<?xml version="1.0" ?><!DOCTYPE svg  PUBLIC '-//W3C//DTD SVG 1.1//EN'  'http://www.w3.org/Graphics/SVG/1.1/DTD/svg11.dtd'><svg enable-background="new 0 0 512 512" height="512px" id="Слой_1" version="1.1" viewBox="0 0 512 512" width="512px" xml:space="preserve" xmlns="http://www.w3.org/2000/svg" xmlns:xlink="http://www.w3.org/1999/xlink"><g id="googleplus"><g><path d="M512,256.008c0,141.387-114.615,255.988-256.004,255.98C114.611,511.996,0,397.395,0,256.008    C0,114.619,114.611,0.012,255.996,0.012C397.385,0.012,512,114.619,512,256.008z" fill="#FA4631"/><path d="M511.922,253.383L386.447,127.908l-20.219,20.217l21.258,21.258l-15.375,15.383l-60.865-60.857    l-112.702,6.553l-41.046,60.227l0.445,44.047l64.827,64.818l-67.288,24.156l-17.859,71.521l116.709,116.719    c0.555,0.008,1.109,0.039,1.664,0.039C397.385,511.996,512,397.395,512,256.008C512,255.133,511.93,254.258,511.922,253.383z" opacity="0.15"/></g><g id="Google_plus_2_"><polygon fill="#F4F6F9" points="386.439,168.016 386.447,127.908 366.33,127.908 366.338,168.016 326.112,168.016     326.112,188.086 366.338,188.086 366.33,228.203 386.447,228.203 386.439,188.086 426.674,188.086 426.674,168.016   "/><path d="M275.996,292.717c-28.148-20.484-35.031-32.055-8.156-52.795c15.141-11.688,25.773-27.242,25.773-46.469    c0-20.945-8.594-39.945-24.742-49.164h22.883l19.492-20.381c0,0-73.453,0-87.195,0c-54.42,0-81.123,32.529-81.123,68.303    c0,36.578,25.164,65.381,74.296,65.381c-7.617,15.328-4.555,29.5,7.905,39.625c-83.904,0-101.873,36.727-101.873,65    c0.008,36.67,42.25,58.443,92.913,58.443c69.257,0,96.796-36.609,96.796-66.662C312.965,329.475,303.777,313.459,275.996,292.717z     M175.725,191.68c-4.055-30.773,11.703-54.328,35.202-53.648c23.476,0.703,43.593,25.969,47.647,56.727    c4.055,30.797-9.469,50.594-32.969,49.883C202.122,243.961,179.779,222.461,175.725,191.68z M216.419,404.363    c-35.015,0-60.296-22.092-60.296-48.646c-0.016-26.016,29.656-48.469,64.671-48.07c38.843,0,62.007,24.109,61.999,49.422    C282.793,383.623,261.168,404.363,216.419,404.363z" fill="#F4F6F9"/></g></g></svg>